<svg width="1438" height="121" viewBox="0 0 1438 121" fill="none" xmlns="http://www.w3.org/2000/svg">
<g clip-path="url(#clip0_7610_5)">
<g clip-path="url(#clip1_7610_5)">
<path fill-rule="evenodd" clip-rule="evenodd" d="M1473 -30H-29V139H-1.49517L-2.31071 102.837L45.3139 85.6458L45.314 85.6458C92.9387 68.4541 188.188 34.0708 283.8 15.7834C379.412 -2.50405 475.388 -4.69565 571.726 9.20861C603.839 13.8434 635.992 20.2665 668.145 26.6897C732.451 39.5361 796.757 52.3825 860.741 50.9214C905.058 49.9094 949.221 42.0334 993.384 34.1574C1044.86 24.977 1096.34 15.7965 1148.06 17.4866C1244.17 21.0292 1341.09 61.0892 1389.57 81.8234L1438.04 102.155L1438.88 139H1473V-30Z" fill="#E7E7E9"/>
</g>
</g>
<defs>
<clipPath id="clip0_7610_5">
<rect width="1438" height="121" fill="white"/>
</clipPath>
<clipPath id="clip1_7610_5">
<rect width="1440" height="322" fill="white" transform="translate(-2.4502 -139)"/>
</clipPath>
</defs>
</svg>
